<svg id="Group_1447" data-name="Group 1447" xmlns="http://www.w3.org/2000/svg" width="24" height="24" viewBox="0 0 24 24">
  <g id="accept-circular-button-outline" transform="translate(4 4)">
    <g id="Group_1446" data-name="Group 1446">
      <g id="Group_1444" data-name="Group 1444">
        <path id="Path_1252" data-name="Path 1252" d="M2.769,13.723a7.725,7.725,0,1,0-1.659-2.462A7.718,7.718,0,0,0,2.769,13.723ZM8.245,1.632A6.615,6.615,0,1,1,1.631,8.246,6.615,6.615,0,0,1,8.245,1.632Z" transform="translate(-0.487 -0.488)" fill="#8e8e8e"/>
        <path id="Path_1253" data-name="Path 1253" d="M7.759,15.518A7.76,7.76,0,0,1,4.738.611a7.76,7.76,0,0,1,6.041,14.3A7.712,7.712,0,0,1,7.759,15.518Zm0-15.491a7.734,7.734,0,0,0-3.01,14.856A7.734,7.734,0,0,0,10.769.636,7.684,7.684,0,0,0,7.759.027Zm0,14.36A6.628,6.628,0,0,1,3.072,3.073a6.628,6.628,0,1,1,9.373,9.373A6.584,6.584,0,0,1,7.759,14.387Zm0-13.229A6.6,6.6,0,0,0,3.091,12.427a6.6,6.6,0,1,0,9.336-9.336A6.558,6.558,0,0,0,7.759,1.158Z" transform="translate(0 -0.001)" fill="#8e8e8e"/>
      </g>
      <g id="Group_1445" data-name="Group 1445" transform="translate(3.655 4.76)">
        <path id="Path_1254" data-name="Path 1254" d="M141.342,186.648a.565.565,0,0,0,.8,0l4.84-4.84a.565.565,0,0,0-.8-.8l-4.44,4.44-1.811-1.811a.565.565,0,1,0-.8.8Z" transform="translate(-138.953 -180.83)" fill="#8e8e8e"/>
        <path id="Path_1255" data-name="Path 1255" d="M141.265,186.339a.575.575,0,0,1-.409-.169l-2.211-2.211a.579.579,0,1,1,.818-.818l1.8,1.8,4.431-4.431a.579.579,0,1,1,.818.818l-4.84,4.84A.575.575,0,0,1,141.265,186.339ZM139.055,183a.552.552,0,0,0-.39.943l2.211,2.211a.552.552,0,0,0,.781,0l4.84-4.84a.552.552,0,0,0-.781-.781l-4.45,4.45-1.82-1.82A.548.548,0,0,0,139.055,183Z" transform="translate(-138.477 -180.342)" fill="#8e8e8e"/>
      </g>
    </g>
  </g>
  <rect id="Rectangle_1192" data-name="Rectangle 1192" width="24" height="24" fill="none"/>
</svg>
