<svg xmlns="http://www.w3.org/2000/svg" width="18.545" height="17" viewBox="0 0 18.545 17">
  <g id="online-shopping" transform="translate(0 -1)">
    <path id="Path_292" data-name="Path 292" d="M16.227,1H2.318A2.364,2.364,0,0,0,0,3.4V8.5a2.861,2.861,0,0,0,2.806,2.907,2.747,2.747,0,0,0,2.082-.977,2.89,2.89,0,0,0,4.385-.062,2.89,2.89,0,0,0,4.385.062,2.747,2.747,0,0,0,2.082.977A2.861,2.861,0,0,0,18.545,8.5V3.4A2.364,2.364,0,0,0,16.227,1ZM4.065,8.31V8.5a1.284,1.284,0,0,1-1.26,1.305,1.283,1.283,0,0,1-1.26-1.3V5.8h2.52Zm4.435,0a1.446,1.446,0,1,1-2.889,0V5.8H8.5Zm4.435,0a1.446,1.446,0,1,1-2.889,0V5.8h2.889ZM17,8.5a1.261,1.261,0,1,1-2.52,0V5.8H17Z" fill="#fff"/>
    <path id="Path_293" data-name="Path 293" d="M17,15.707v4.05a.879.879,0,0,1-.773.955H2.318a.879.879,0,0,1-.773-.955v-4.05A4.189,4.189,0,0,1,0,14.666v5.092a2.638,2.638,0,0,0,2.318,2.864H16.227a2.638,2.638,0,0,0,2.318-2.864V14.666A4.178,4.178,0,0,1,17,15.707Z" transform="translate(0 -4.621)" fill="#fff"/>
  </g>
</svg>
