<svg xmlns="http://www.w3.org/2000/svg" width="43" height="56" viewBox="0 0 43 56">
  <g id="Group_1828" data-name="Group 1828" transform="translate(-1018 -881)">
    <g id="jpg" transform="translate(1018 881)">
      <path id="Path_4762" data-name="Path 4762" d="M36.985,0H7.963C7.155,0,6.5.655,6.5,1.926V55a1.506,1.506,0,0,0,1.463,1H48.037A1.506,1.506,0,0,0,49.5,55V12.978c0-.7-.093-.92-.257-1.085L37.607.257A.884.884,0,0,0,36.985,0Z" transform="translate(-6.5 0)" fill="#e9e9e0"/>
      <path id="Path_4763" data-name="Path 4763" d="M37.5.151V12H49.349Z" transform="translate(-6.5 0)" fill="#d9d7ca"/>
      <path id="Path_4765" data-name="Path 4765" d="M48.037,56H7.963A1.463,1.463,0,0,1,6.5,54.537V39h43V54.537A1.463,1.463,0,0,1,48.037,56Z" transform="translate(-6.5 0)" fill="#9826eb"/>
    </g>
    <path id="Path_5944" data-name="Path 5944" d="M41.393,51a.679.679,0,0,0-.679.679v2.036H38.679a.679.679,0,0,0,0,1.357h2.714a.679.679,0,0,0,.679-.679V51.679A.679.679,0,0,0,41.393,51Z" transform="translate(1006.928 858.928)" fill="#9826eb" opacity="0.722"/>
    <path id="Path_5945" data-name="Path 5945" d="M19.393,53.714H17.357V51.679a.679.679,0,0,0-1.357,0v2.714a.679.679,0,0,0,.679.679h2.714a.679.679,0,1,0,0-1.357Z" transform="translate(1014 858.928)" fill="#9826eb" opacity="0.722"/>
    <path id="Path_5946" data-name="Path 5946" d="M41.393,29H38.679a.679.679,0,0,0,0,1.357h2.036v2.036a.679.679,0,0,0,1.357,0V29.679A.679.679,0,0,0,41.393,29Z" transform="translate(1006.928 866)" fill="#9826eb" opacity="0.722"/>
    <path id="Path_5947" data-name="Path 5947" d="M16.679,33.071a.679.679,0,0,0,.679-.679V30.357h2.036a.679.679,0,1,0,0-1.357H16.679a.679.679,0,0,0-.679.679v2.714A.679.679,0,0,0,16.679,33.071Z" transform="translate(1014 866)" fill="#9826eb" opacity="0.722"/>
    <path id="Path_5948" data-name="Path 5948" d="M34.321,37.821H28.893V35.786a.679.679,0,0,0-.679-.679H26.179V29.679a.679.679,0,0,0-1.357,0v5.429H22.786a.679.679,0,0,0-.679.679v2.036H16.679a.679.679,0,1,0,0,1.357h5.429v2.036a.679.679,0,0,0,.679.679h2.036v5.429a.679.679,0,1,0,1.357,0V41.893h2.036a.679.679,0,0,0,.679-.679V39.179h5.429a.679.679,0,1,0,0-1.357ZM25.5,39.179a.679.679,0,1,1,.679-.679A.679.679,0,0,1,25.5,39.179Z" transform="translate(1014 866)" fill="#9826eb" opacity="0.722"/>
    <g id="Group_1827" data-name="Group 1827" transform="translate(19907.176 -19100)">
      <g id="Group_1826" data-name="Group 1826" transform="translate(-18897.607 19981)">
        <path id="Path_5912" data-name="Path 5912" d="M23.5,47.682a7.4,7.4,0,0,1-.267,2.126,5.285,5.285,0,0,1-.677,1.477,3.478,3.478,0,0,1-.923.937,4.63,4.63,0,0,1-.991.513,4.1,4.1,0,0,1-.875.219A5.833,5.833,0,0,1,19.18,53H15.366V42.924H18.4a5.766,5.766,0,0,1,2.235.4,4.64,4.64,0,0,1,1.6,1.073,4.4,4.4,0,0,1,.95,1.524A5.047,5.047,0,0,1,23.5,47.682ZM18.633,51.8a2.716,2.716,0,0,0,2.406-1.066,5.412,5.412,0,0,0,.738-3.09,5.234,5.234,0,0,0-.15-1.244,2.661,2.661,0,0,0-.581-1.114,3.066,3.066,0,0,0-1.169-.807,5.034,5.034,0,0,0-1.914-.308h-.957V51.8h1.627Z" transform="translate(20)" fill="#fff"/>
        <path id="Path_5914" data-name="Path 5914" d="M42.607,51.975a3.73,3.73,0,0,1-1.271.82,4.212,4.212,0,0,1-1.531.273,4.135,4.135,0,0,1-1.661-.328,3.72,3.72,0,0,1-1.326-.971,4.581,4.581,0,0,1-.889-1.613,7.966,7.966,0,0,1,0-4.477,4.558,4.558,0,0,1,.889-1.606,3.78,3.78,0,0,1,1.333-.978,4.069,4.069,0,0,1,1.654-.335,4.233,4.233,0,0,1,1.531.273,3.735,3.735,0,0,1,1.271.82l-1.135,1.012a2.072,2.072,0,0,0-.759-.574,2.2,2.2,0,0,0-.868-.178,2.468,2.468,0,0,0-.964.191,2.065,2.065,0,0,0-.82.649,3.344,3.344,0,0,0-.567,1.183,6.977,6.977,0,0,0-.219,1.777,7.065,7.065,0,0,0,.212,1.75,3.427,3.427,0,0,0,.547,1.183,2.193,2.193,0,0,0,.793.67,2.138,2.138,0,0,0,.937.212,2.4,2.4,0,0,0,.923-.178,2.167,2.167,0,0,0,.786-.574Z" transform="translate(-19.242)" fill="#fff"/>
      </g>
      <path id="Path_5949" data-name="Path 5949" d="M6.651-2.6H2.481L1.545,0H.191l3.8-9.953H5.141L8.948,0H7.6ZM2.878-3.678H6.262l-1.7-4.655Z" transform="translate(-18873 20034)" fill="#fff"/>
    </g>
  </g>
</svg>
