<svg id="photo-camera-interface-symbol-for-button_2_" data-name="photo-camera-interface-symbol-for-button (2)" xmlns="http://www.w3.org/2000/svg" width="30" height="22.651" viewBox="0 0 27.819 22.651">
  <path id="Path_1205" data-name="Path 1205" d="M18.4,16.563a4.486,4.486,0,1,1-4.486-4.486A4.491,4.491,0,0,1,18.4,16.563Zm9.423-6.371V22.935a3.076,3.076,0,0,1-3.076,3.076H3.076A3.076,3.076,0,0,1,0,22.935V10.192A3.076,3.076,0,0,1,3.076,7.116H6.86V6.052A2.691,2.691,0,0,1,9.551,3.36h8.716a2.691,2.691,0,0,1,2.692,2.692V7.115h3.784A3.077,3.077,0,0,1,27.819,10.192ZM20.7,16.563a6.793,6.793,0,1,0-6.794,6.794A6.8,6.8,0,0,0,20.7,16.563Z" transform="translate(0 -3.36)" fill="#a8a8a6"/>
</svg>
