<svg width="50" height="40" viewBox="0 0 35 28" fill="none" xmlns="http://www.w3.org/2000/svg">
<path d="M23.1463 16.3209C23.1463 17.4176 22.8154 18.4898 22.1953 19.4017C21.5752 20.3136 20.6938 21.0244 19.6627 21.4441C18.6315 21.8638 17.4969 21.9736 16.4022 21.7597C15.3075 21.5457 14.302 21.0176 13.5128 20.242C12.7236 19.4665 12.1861 18.4784 11.9684 17.4027C11.7507 16.327 11.8624 15.212 12.2895 14.1988C12.7167 13.1855 13.44 12.3194 14.368 11.7101C15.296 11.1007 16.387 10.7755 17.5031 10.7755C18.9993 10.7771 20.4337 11.3619 21.4916 12.4015C22.5496 13.4411 23.1447 14.8507 23.1463 16.3209ZM35 8.44537V24.1976C35 24.6969 34.8999 25.1914 34.7055 25.6527C34.511 26.114 34.226 26.5332 33.8667 26.8863C33.5073 27.2394 33.0808 27.5195 32.6113 27.7106C32.1419 27.9016 31.6387 28 31.1305 28H3.86946C3.36132 28 2.85815 27.9016 2.38868 27.7106C1.91922 27.5195 1.49265 27.2394 1.13334 26.8863C0.774026 26.5332 0.489004 26.114 0.294545 25.6527C0.100087 25.1914 0 24.6969 0 24.1976L0 8.44537C0 7.43691 0.407674 6.46976 1.13334 5.75667C1.859 5.04358 2.84322 4.64297 3.86946 4.64297H8.62955V3.32771C8.62939 2.89077 8.71682 2.45807 8.88687 2.05435C9.05692 1.65062 9.30624 1.28376 9.62059 0.974739C9.93495 0.665717 10.3082 0.42058 10.719 0.253332C11.1298 0.0860832 11.5701 1.99619e-07 12.0147 2.29788e-07H22.979C23.4238 -0.000162211 23.8642 0.0858008 24.2751 0.252976C24.6861 0.420152 25.0594 0.665263 25.3739 0.974302C25.6884 1.28334 25.9379 1.65025 26.108 2.05406C26.2781 2.45787 26.3656 2.89067 26.3654 3.32771V4.64174H31.1255C32.1519 4.64207 33.1361 5.04295 33.8617 5.75623C34.5873 6.46952 34.995 7.4368 34.995 8.44537H35ZM26.0396 16.3209C26.0394 14.6602 25.538 13.0368 24.5989 11.6561C23.6599 10.2754 22.3253 9.19932 20.7639 8.56391C19.2025 7.9285 17.4844 7.76231 15.8269 8.08636C14.1694 8.4104 12.6469 9.21013 11.4519 10.3844C10.2569 11.5587 9.44309 13.0548 9.11333 14.6836C8.78357 16.3124 8.95269 18.0007 9.5993 19.535C10.2459 21.0693 11.341 22.3808 12.7461 23.3036C14.1511 24.2264 15.8031 24.719 17.4931 24.7193C19.7591 24.7173 21.9318 23.8318 23.5342 22.2573C25.1365 20.6827 26.0376 18.5477 26.0396 16.3209V16.3209Z" fill="#A8A8A6"/>
</svg>
