<svg xmlns="http://www.w3.org/2000/svg" width="17.827" height="15.669" viewBox="0 0 17.827 15.669">
  <g id="shopping-cart_1_" data-name="shopping-cart (1)" transform="translate(0 0)">
    <path id="Path_294" data-name="Path 294" d="M5.78,10.446h9.436a.521.521,0,0,0,.5-.379l2.089-7.312a.522.522,0,0,0-.5-.666H4.574L4.2.409A.522.522,0,0,0,3.691,0H.522a.522.522,0,1,0,0,1.045H3.272L5.158,9.532a1.566,1.566,0,0,0,.622,3h9.436a.522.522,0,0,0,0-1.045H5.78a.522.522,0,0,1,0-1.045Zm0,0" fill="#fff"/>
    <path id="Path_295" data-name="Path 295" d="M151,361.571A1.567,1.567,0,1,0,152.567,360,1.569,1.569,0,0,0,151,361.571Zm0,0" transform="translate(-145.742 -347.469)" fill="#fff"/>
    <path id="Path_296" data-name="Path 296" d="M362,361.571A1.567,1.567,0,1,0,363.571,360,1.569,1.569,0,0,0,362,361.571Zm0,0" transform="translate(-349.4 -347.469)" fill="#fff"/>
  </g>
</svg>
