<svg xmlns="http://www.w3.org/2000/svg" width="17.953" height="20.319" viewBox="0 0 17.953 20.319">
  <path id="paperclip_2_" data-name="paperclip (2)" d="M5.388,17.241A5.394,5.394,0,0,1,0,11.853V4.31a.718.718,0,0,1,1.437,0v7.543a3.951,3.951,0,1,0,7.9,0v-7.9a2.514,2.514,0,0,0-5.029,0v7.184a1.078,1.078,0,0,0,2.155,0V4.31a.718.718,0,0,1,1.437,0v6.825a2.514,2.514,0,0,1-5.029,0V3.951a3.951,3.951,0,0,1,7.9,0v7.9a5.394,5.394,0,0,1-5.388,5.388Zm0,0" transform="translate(8.621) rotate(30)" fill="#003b6b"/>
</svg>
