<svg xmlns="http://www.w3.org/2000/svg" width="24" height="24" viewBox="0 0 24 24">
  <g id="Group_1725" data-name="Group 1725" transform="translate(-198 -330)">
    <g id="_02_User" data-name="02 User" transform="translate(206.006 338.003)">
      <path id="Path_1320" data-name="Path 1320" d="M.434,9a.439.439,0,0,1-.311-.75L8.244.125a.44.44,0,0,1,.622.622L.744,8.868A.438.438,0,0,1,.434,9Z" transform="translate(0 0)" fill="#003b6b"/>
      <path id="Path_1321" data-name="Path 1321" d="M8.557,9a.438.438,0,0,1-.311-.129L.125.747A.44.44,0,1,1,.747.125L8.868,8.246A.439.439,0,0,1,8.557,9Z" transform="translate(-0.003 0)" fill="#003b6b"/>
    </g>
    <rect id="Rectangle_1270" data-name="Rectangle 1270" width="24" height="24" transform="translate(198 330)" fill="none"/>
  </g>
</svg>
