<svg id="Group_267" data-name="Group 267" xmlns="http://www.w3.org/2000/svg" width="23" height="23" viewBox="0 0 23 23">
  <ellipse id="Ellipse_30" data-name="Ellipse 30" cx="1" cy="1.5" rx="1" ry="1.5" transform="translate(16 7.798)" fill="#003b6b"/>
  <path id="Path_276" data-name="Path 276" d="M19.406,1.8H18.238V.9a.9.9,0,0,0-1.8,0v.9H12.354V.9a.9.9,0,0,0-1.8,0v.9H6.514V.9a.9.9,0,0,0-1.8,0v.9H3.594A3.6,3.6,0,0,0,0,5.391V19.406A3.6,3.6,0,0,0,3.594,23h6.873a.9.9,0,0,0,0-1.8H3.594a1.8,1.8,0,0,1-1.8-1.8V5.391a1.8,1.8,0,0,1,1.8-1.8H4.717v.9a.9.9,0,0,0,1.8,0v-.9h4.043v.9a.9.9,0,0,0,1.8,0v-.9h4.088v.9a.9.9,0,0,0,1.8,0v-.9h1.168a1.8,1.8,0,0,1,1.8,1.8v5.121a.9.9,0,0,0,1.8,0V5.391A3.6,3.6,0,0,0,19.406,1.8Z" fill="#003b6b"/>
  <path id="Path_277" data-name="Path 277" d="M275.436,270a5.436,5.436,0,1,0,5.436,5.436A5.442,5.442,0,0,0,275.436,270Zm0,9.074a3.639,3.639,0,1,1,3.639-3.639A3.643,3.643,0,0,1,275.436,279.074Z" transform="translate(-257.871 -257.871)" fill="#003b6b"/>
  <path id="Path_278" data-name="Path 278" d="M373.2,331.842h-.4V330.9a.9.9,0,0,0-1.8,0v1.842a.9.9,0,0,0,.9.9h1.3a.9.9,0,0,0,0-1.8Z" transform="translate(-354.334 -315.176)" fill="#003b6b"/>
  <ellipse id="Ellipse_31" data-name="Ellipse 31" cx="1" cy="1.5" rx="1" ry="1.5" transform="translate(12 7.798)" fill="#003b6b"/>
  <circle id="Ellipse_32" data-name="Ellipse 32" cx="1" cy="1" r="1" transform="translate(9 11.798)" fill="#003b6b"/>
  <ellipse id="Ellipse_33" data-name="Ellipse 33" cx="1" cy="1.5" rx="1" ry="1.5" transform="translate(5 7.798)" fill="#003b6b"/>
  <circle id="Ellipse_34" data-name="Ellipse 34" cx="1" cy="1" r="1" transform="translate(5 11.798)" fill="#003b6b"/>
  <circle id="Ellipse_35" data-name="Ellipse 35" cx="1" cy="1" r="1" transform="translate(5 15.798)" fill="#003b6b"/>
  <circle id="Ellipse_36" data-name="Ellipse 36" cx="1" cy="1" r="1" transform="translate(9 15.798)" fill="#003b6b"/>
  <ellipse id="Ellipse_37" data-name="Ellipse 37" cx="1" cy="1.5" rx="1" ry="1.5" transform="translate(9 7.798)" fill="#003b6b"/>
</svg>
