<svg xmlns="http://www.w3.org/2000/svg" width="24" height="24" viewBox="0 0 24 24">
  <g id="Group_1460" data-name="Group 1460" transform="translate(-95 -97)">
    <g id="Group_1452" data-name="Group 1452" transform="translate(0 2)">
      <rect id="Rectangle_1193" data-name="Rectangle 1193" width="24" height="24" transform="translate(95 95)" fill="none"/>
    </g>
    <g id="delete_4_" data-name="delete (4)" transform="translate(100 101)">
      <path id="Path_1260" data-name="Path 1260" d="M126.491,1.026h2.841V1.5h1.026V.959A.96.96,0,0,0,129.4,0h-2.976a.96.96,0,0,0-.959.959V1.5h1.026Zm0,0" transform="translate(-121.299 0)" fill="#8e8e8e"/>
      <path id="Path_1261" data-name="Path 1261" d="M50.575,167.75H40.942a.452.452,0,0,0-.45.488L41.3,178.2a1.069,1.069,0,0,0,1.066.984h6.791a1.07,1.07,0,0,0,1.066-.984l.805-9.958a.452.452,0,0,0-.45-.488Zm-7.3,10.368h-.032a.513.513,0,0,1-.512-.482l-.5-8.175a.513.513,0,0,1,1.024-.063l.5,8.175A.513.513,0,0,1,43.275,178.118Zm3-.512a.513.513,0,0,1-1.026,0v-8.175a.513.513,0,1,1,1.026,0Zm3.013-8.145-.482,8.175a.513.513,0,0,1-.512.483h-.031a.513.513,0,0,1-.482-.542l.482-8.175a.513.513,0,0,1,1.024.06Zm0,0" transform="translate(-39.146 -162.18)" fill="#8e8e8e"/>
      <path id="Path_1262" data-name="Path 1262" d="M13.2,77.667l-.337-1.01a.652.652,0,0,0-.619-.446H.978a.652.652,0,0,0-.619.446l-.337,1.01a.424.424,0,0,0,.4.557H12.8a.418.418,0,0,0,.224-.065.423.423,0,0,0,.177-.492Zm0,0" transform="translate(0 -73.681)" fill="#8e8e8e"/>
    </g>
  </g>
</svg>
