<svg xmlns="http://www.w3.org/2000/svg" width="43" height="56" viewBox="0 0 43 56">
  <g id="doc" transform="translate(-6.5)">
    <path id="Path_5897" data-name="Path 5897" d="M36.985,0H7.963C7.155,0,6.5.655,6.5,1.926V55a1.506,1.506,0,0,0,1.463,1H48.037A1.506,1.506,0,0,0,49.5,55V12.978c0-.7-.093-.92-.257-1.085L37.607.257A.884.884,0,0,0,36.985,0Z" fill="#e9e9e0"/>
    <path id="Path_5898" data-name="Path 5898" d="M37.5.151V12H49.349Z" fill="#d9d7ca"/>
    <path id="Path_5899" data-name="Path 5899" d="M18.5,13h-6a1,1,0,0,1,0-2h6a1,1,0,0,1,0,2Z" fill="#8697cb"/>
    <path id="Path_5900" data-name="Path 5900" d="M21.5,18h-9a1,1,0,0,1,0-2h9a1,1,0,0,1,0,2Z" fill="#8697cb"/>
    <path id="Path_5901" data-name="Path 5901" d="M25.5,18a.99.99,0,1,1,.71-.29A1.052,1.052,0,0,1,25.5,18Z" fill="#8697cb"/>
    <path id="Path_5902" data-name="Path 5902" d="M37.5,18h-8a1,1,0,0,1,0-2h8a1,1,0,0,1,0,2Z" fill="#8697cb"/>
    <path id="Path_5903" data-name="Path 5903" d="M12.5,33a1,1,0,1,1,.71-1.71,1.033,1.033,0,0,1,.29.71.99.99,0,0,1-1,1Z" fill="#8697cb"/>
    <path id="Path_5904" data-name="Path 5904" d="M24.5,33h-8a1,1,0,0,1,0-2h8a1,1,0,0,1,0,2Z" fill="#8697cb"/>
    <path id="Path_5905" data-name="Path 5905" d="M43.5,18h-2a1,1,0,0,1,0-2h2a1,1,0,0,1,0,2Z" fill="#8697cb"/>
    <path id="Path_5906" data-name="Path 5906" d="M34.5,23h-22a1,1,0,0,1,0-2h22a1,1,0,0,1,0,2Z" fill="#8697cb"/>
    <path id="Path_5907" data-name="Path 5907" d="M43.5,23h-6a1,1,0,0,1,0-2h6a1,1,0,0,1,0,2Z" fill="#8697cb"/>
    <path id="Path_5908" data-name="Path 5908" d="M16.5,28h-4a1,1,0,0,1,0-2h4a1,1,0,0,1,0,2Z" fill="#8697cb"/>
    <path id="Path_5909" data-name="Path 5909" d="M30.5,28h-10a1,1,0,0,1,0-2h10a1,1,0,0,1,0,2Z" fill="#8697cb"/>
    <path id="Path_5910" data-name="Path 5910" d="M43.5,28h-9a1,1,0,0,1,0-2h9a1,1,0,0,1,0,2Z" fill="#8697cb"/>
    <path id="Path_5911" data-name="Path 5911" d="M48.037,56H7.963A1.463,1.463,0,0,1,6.5,54.537V39h43V54.537A1.463,1.463,0,0,1,48.037,56Z" fill="#0096e6"/>
    <g id="Group_1798" data-name="Group 1798">
      <path id="Path_5912" data-name="Path 5912" d="M23.5,47.682a7.4,7.4,0,0,1-.267,2.126,5.285,5.285,0,0,1-.677,1.477,3.478,3.478,0,0,1-.923.937,4.63,4.63,0,0,1-.991.513,4.1,4.1,0,0,1-.875.219A5.833,5.833,0,0,1,19.18,53H15.366V42.924H18.4a5.766,5.766,0,0,1,2.235.4,4.64,4.64,0,0,1,1.6,1.073,4.4,4.4,0,0,1,.95,1.524A5.047,5.047,0,0,1,23.5,47.682ZM18.633,51.8a2.716,2.716,0,0,0,2.406-1.066,5.412,5.412,0,0,0,.738-3.09,5.234,5.234,0,0,0-.15-1.244,2.661,2.661,0,0,0-.581-1.114,3.066,3.066,0,0,0-1.169-.807,5.034,5.034,0,0,0-1.914-.308h-.957V51.8h1.627Z" fill="#fff"/>
      <path id="Path_5913" data-name="Path 5913" d="M33.475,47.914a7.138,7.138,0,0,1-.321,2.242,4.572,4.572,0,0,1-.889,1.613,3.72,3.72,0,0,1-1.326.971,4.37,4.37,0,0,1-3.322,0,3.72,3.72,0,0,1-1.326-.971,4.581,4.581,0,0,1-.889-1.613,7.966,7.966,0,0,1,0-4.477,4.558,4.558,0,0,1,.889-1.606,3.8,3.8,0,0,1,1.326-.978,4.285,4.285,0,0,1,3.322,0,3.8,3.8,0,0,1,1.326.978,4.608,4.608,0,0,1,.889,1.606A7.1,7.1,0,0,1,33.475,47.914Zm-4.239,3.815a2.407,2.407,0,0,0,.964-.2,2.155,2.155,0,0,0,.82-.649,3.286,3.286,0,0,0,.567-1.183,7.106,7.106,0,0,0,.219-1.784,6.974,6.974,0,0,0-.212-1.743,3.5,3.5,0,0,0-.547-1.183,2.107,2.107,0,0,0-.793-.67,2.2,2.2,0,0,0-.937-.205,2.468,2.468,0,0,0-.964.191,2.065,2.065,0,0,0-.82.649,3.343,3.343,0,0,0-.567,1.183,6.977,6.977,0,0,0-.219,1.777,7.065,7.065,0,0,0,.212,1.75,3.427,3.427,0,0,0,.547,1.183,2.192,2.192,0,0,0,.793.67A2.158,2.158,0,0,0,29.236,51.729Z" fill="#fff"/>
      <path id="Path_5914" data-name="Path 5914" d="M42.607,51.975a3.73,3.73,0,0,1-1.271.82,4.212,4.212,0,0,1-1.531.273,4.135,4.135,0,0,1-1.661-.328,3.72,3.72,0,0,1-1.326-.971,4.581,4.581,0,0,1-.889-1.613,7.966,7.966,0,0,1,0-4.477,4.558,4.558,0,0,1,.889-1.606,3.78,3.78,0,0,1,1.333-.978,4.069,4.069,0,0,1,1.654-.335,4.233,4.233,0,0,1,1.531.273,3.735,3.735,0,0,1,1.271.82l-1.135,1.012a2.072,2.072,0,0,0-.759-.574,2.2,2.2,0,0,0-.868-.178,2.468,2.468,0,0,0-.964.191,2.065,2.065,0,0,0-.82.649,3.344,3.344,0,0,0-.567,1.183,6.977,6.977,0,0,0-.219,1.777,7.065,7.065,0,0,0,.212,1.75,3.427,3.427,0,0,0,.547,1.183,2.193,2.193,0,0,0,.793.67,2.138,2.138,0,0,0,.937.212,2.4,2.4,0,0,0,.923-.178,2.167,2.167,0,0,0,.786-.574Z" fill="#fff"/>
    </g>
  </g>
</svg>
