<svg xmlns="http://www.w3.org/2000/svg" width="16.075" height="16.075" viewBox="0 0 16.075 16.075">
  <g id="edit_3_" data-name="edit (3)" transform="translate(-6.014 -6.031)">
    <g id="Group_1712" data-name="Group 1712" transform="translate(6.97 6.746)">
      <path id="Path_1314" data-name="Path 1314" d="M9.724,19.248a.619.619,0,0,1-.437-1.056l9.667-9.667a.619.619,0,0,1,.875.875l-9.667,9.667A.617.617,0,0,1,9.724,19.248Z" transform="translate(-9.105 -8.343)" fill="#8e8e8e"/>
    </g>
    <g id="Group_1713" data-name="Group 1713" transform="translate(6.015 16.413)">
      <path id="Path_1315" data-name="Path 1315" d="M6.634,45.289a.626.626,0,0,1-.13-.014.619.619,0,0,1-.475-.735l.956-4.455a.619.619,0,0,1,1.21.26L7.239,44.8A.619.619,0,0,1,6.634,45.289Z" transform="translate(-6.015 -39.597)" fill="#8e8e8e"/>
    </g>
    <g id="Group_1714" data-name="Group 1714" transform="translate(10.47 10.246)">
      <path id="Path_1316" data-name="Path 1316" d="M21.037,30.562a.619.619,0,0,1-.437-1.056l9.667-9.667a.619.619,0,0,1,.875.875L21.474,30.38a.617.617,0,0,1-.438.181Z" transform="translate(-20.418 -19.657)" fill="#8e8e8e"/>
    </g>
    <g id="Group_1715" data-name="Group 1715" transform="translate(6.014 19.913)">
      <path id="Path_1317" data-name="Path 1317" d="M6.633,53.1A.619.619,0,0,1,6.5,51.879l4.455-.956a.619.619,0,0,1,.26,1.21l-4.455.956A.606.606,0,0,1,6.633,53.1Z" transform="translate(-6.014 -50.91)" fill="#8e8e8e"/>
    </g>
    <g id="Group_1716" data-name="Group 1716" transform="translate(14.888 8.496)">
      <path id="Path_1318" data-name="Path 1318" d="M38.82,18.737a.616.616,0,0,1-.437-.181l-3.5-3.5a.619.619,0,1,1,.875-.875l3.5,3.5a.619.619,0,0,1-.437,1.056Z" transform="translate(-34.702 -14)" fill="#8e8e8e"/>
    </g>
    <g id="Group_1717" data-name="Group 1717" transform="translate(16.637 6.031)">
      <path id="Path_1319" data-name="Path 1319" d="M44.476,11.483a.619.619,0,0,1-.438-1.056A1.856,1.856,0,0,0,41.413,7.8a.619.619,0,1,1-.875-.875A3.093,3.093,0,0,1,44.913,11.3.616.616,0,0,1,44.476,11.483Z" transform="translate(-40.357 -6.031)" fill="#8e8e8e"/>
    </g>
  </g>
</svg>
