<svg xmlns="http://www.w3.org/2000/svg" width="25.689" height="25.688" viewBox="0 0 25.689 25.688">
  <g id="layer1" transform="translate(-0.529 -291.179)">
    <path id="path56" d="M10.806,291.179a10.274,10.274,0,1,0,6.281,18.38l6.936,6.929a1.284,1.284,0,1,0,1.821-1.812l-6.938-6.939a10.254,10.254,0,0,0-8.1-16.558Zm0,2.569a7.7,7.7,0,1,1-7.706,7.7A7.674,7.674,0,0,1,10.806,293.748Zm-2.739,3.68a1.285,1.285,0,0,0-.89,2.208l1.813,1.816-1.814,1.816a1.284,1.284,0,1,0,1.811,1.822l1.816-1.816,1.814,1.816a1.288,1.288,0,1,0,1.821-1.822l-1.816-1.816,1.816-1.816a1.287,1.287,0,1,0-1.821-1.819L10.8,299.633l-1.816-1.816a1.284,1.284,0,0,0-.921-.389Z" transform="translate(0 0)" fill="#707070"/>
  </g>
</svg>
