<svg xmlns="http://www.w3.org/2000/svg" width="81.181" height="105.725" viewBox="0 0 81.181 105.725">
  <g id="Group_1846" data-name="Group 1846" transform="translate(-580.819 -228)">
    <g id="xls" transform="translate(580.819 228)">
      <path id="Path_5890" data-name="Path 5890" d="M64.054,0H9.262C7.737,0,6.5,1.237,6.5,3.636v100.2c0,.651,1.237,1.888,2.762,1.888H84.919c1.525,0,2.762-1.237,2.762-1.888V24.5c0-1.314-.176-1.737-.485-2.048L65.228.485A1.668,1.668,0,0,0,64.054,0Z" transform="translate(-6.5 0)" fill="#e9e9e0"/>
      <path id="Path_5891" data-name="Path 5891" d="M37.5.151v22.37H59.87Z" transform="translate(21.026 0.134)" fill="#d9d7ca"/>
      <path id="Path_5892" data-name="Path 5892" d="M84.919,71.095H9.262A2.762,2.762,0,0,1,6.5,68.333V39H87.681V68.333A2.762,2.762,0,0,1,84.919,71.095Z" transform="translate(-6.5 34.63)" fill="#f50000" opacity="0.495"/>
    </g>
    <path id="Path_5950" data-name="Path 5950" d="M.621,1.171H-8.391v9.484h-2.832V-10.82h13.3v2.33H-8.391v7.345H.621Zm7.39,9.484H5.282V-5.3H8.011ZM5.061-9.537a1.629,1.629,0,0,1,.406-1.121,1.523,1.523,0,0,1,1.2-.457,1.547,1.547,0,0,1,1.209.457,1.612,1.612,0,0,1,.413,1.121,1.559,1.559,0,0,1-.413,1.106,1.575,1.575,0,0,1-1.209.442,1.55,1.55,0,0,1-1.2-.442A1.575,1.575,0,0,1,5.061-9.537Zm10.28,20.192H12.613V-12h2.729Zm10.988.295a6.973,6.973,0,0,1-5.28-2.131,7.91,7.91,0,0,1-2.035-5.7v-.5a9.577,9.577,0,0,1,.907-4.24,7.076,7.076,0,0,1,2.537-2.92A6.378,6.378,0,0,1,25.99-5.6a5.977,5.977,0,0,1,4.838,2.05,8.877,8.877,0,0,1,1.726,5.87V3.458H21.742A5.673,5.673,0,0,0,23.122,7.27a4.335,4.335,0,0,0,3.356,1.453,4.752,4.752,0,0,0,2.448-.59A6.152,6.152,0,0,0,30.681,6.57l1.667,1.3A6.7,6.7,0,0,1,26.33,10.95ZM25.99-3.357a3.64,3.64,0,0,0-2.773,1.2,5.843,5.843,0,0,0-1.386,3.37h7.994V1.009A5.2,5.2,0,0,0,28.7-2.214,3.427,3.427,0,0,0,25.99-3.357Z" transform="translate(612.388 317.405)" fill="#fff"/>
    <g id="Group_1845" data-name="Group 1845" transform="translate(604.941 248.767)">
      <path id="path22975" d="M1473.91,1978.15v3.522h17.939v-3.522Z" transform="translate(-1466.972 -1939.981)" fill="#fa9579" fill-rule="evenodd"/>
      <path id="path22987" d="M1460.774,1794.66a15.907,15.907,0,1,0,15.908,15.906A15.933,15.933,0,0,0,1460.774,1794.66Zm0,3.52a12.387,12.387,0,1,1-12.386,12.386A12.361,12.361,0,0,1,1460.774,1798.18Z" transform="translate(-1444.866 -1794.66)" fill="#fa9579" fill-rule="evenodd"/>
      <path id="path22989" d="M1494.154,1832.87l-1.246,1.245-8.575,8.574-1.245,1.245,2.491,2.489,1.245-1.243,8.575-8.575,1.243-1.246Z" transform="translate(-1473.957 -1823.742)" fill="#fa9579" fill-rule="evenodd"/>
      <path id="path22991" d="M1485.583,1832.87l-2.491,2.491,1.245,1.246,8.575,8.572,1.245,1.246,2.489-2.489-1.243-1.245-8.575-8.574Z" transform="translate(-1473.96 -1823.742)" fill="#fa9579" fill-rule="evenodd"/>
    </g>
  </g>
</svg>
