<svg xmlns="http://www.w3.org/2000/svg" width="43" height="56" viewBox="0 0 43 56">
  <g id="xls" transform="translate(-6.5)">
    <path id="Path_5890" data-name="Path 5890" d="M36.985,0H7.963C7.155,0,6.5.655,6.5,1.926V55a1.506,1.506,0,0,0,1.463,1H48.037A1.506,1.506,0,0,0,49.5,55V12.978c0-.7-.093-.92-.257-1.085L37.607.257A.884.884,0,0,0,36.985,0Z" fill="#e9e9e0"/>
    <path id="Path_5891" data-name="Path 5891" d="M37.5.151V12H49.349Z" fill="#d9d7ca"/>
    <path id="Path_5892" data-name="Path 5892" d="M48.037,56H7.963A1.463,1.463,0,0,1,6.5,54.537V39h43V54.537A1.463,1.463,0,0,1,48.037,56Z" fill="#91cda0"/>
    <g id="Group_1797" data-name="Group 1797">
      <path id="Path_5893" data-name="Path 5893" d="M20.379,48.1,22.936,53h-1.9l-1.6-3.8H19.3L17.576,53h-1.9l2.557-4.9-2.721-5.182h1.873l1.777,4.1H19.3l1.928-4.1H23.1Z" fill="#fff"/>
      <path id="Path_5894" data-name="Path 5894" d="M27.037,42.924v8.832h4.635V53h-6.3V42.924Z" fill="#fff"/>
      <path id="Path_5895" data-name="Path 5895" d="M39.041,50.238a2.6,2.6,0,0,1-.226,1.06,2.788,2.788,0,0,1-.635.9,3.032,3.032,0,0,1-1.012.622,3.771,3.771,0,0,1-1.367.232c-.219,0-.444-.012-.677-.034a5.492,5.492,0,0,1-.7-.116,3.686,3.686,0,0,1-.677-.226,2.171,2.171,0,0,1-.554-.349l.287-1.176a2.883,2.883,0,0,0,.485.212c.2.068.4.132.608.191a6.134,6.134,0,0,0,.629.144,3.48,3.48,0,0,0,.588.055,1.878,1.878,0,0,0,1.278-.39,1.456,1.456,0,0,0,.444-1.155,1.107,1.107,0,0,0-.314-.793,3.4,3.4,0,0,0-.786-.6q-.471-.267-1.019-.533a6.173,6.173,0,0,1-1.025-.629,3.281,3.281,0,0,1-.793-.854,2.238,2.238,0,0,1-.314-1.23,2.747,2.747,0,0,1,.246-1.189,2.66,2.66,0,0,1,.663-.882,2.934,2.934,0,0,1,.971-.554,3.542,3.542,0,0,1,1.169-.191,7.171,7.171,0,0,1,1.271.116,2.8,2.8,0,0,1,1.039.376c-.055.118-.119.248-.191.39s-.142.273-.205.4-.119.226-.164.308a1.264,1.264,0,0,1-.082.137,1.651,1.651,0,0,1-.185-.109,1.415,1.415,0,0,0-.294-.137,2.1,2.1,0,0,0-.506-.1,4.781,4.781,0,0,0-.807.014,1.412,1.412,0,0,0-.52.157,1.8,1.8,0,0,0-.438.321,1.464,1.464,0,0,0-.3.431,1.1,1.1,0,0,0-.109.458,1.237,1.237,0,0,0,.314.882,3.047,3.047,0,0,0,.779.588q.465.253,1.012.492a5.519,5.519,0,0,1,1.019.581,2.936,2.936,0,0,1,.786.854A2.468,2.468,0,0,1,39.041,50.238Z" fill="#fff"/>
    </g>
    <path id="Path_5896" data-name="Path 5896" d="M23.5,16V12h-12V34h33V16Zm-10-2h8v2h-8Zm0,4h8v2h-8Zm0,4h8v2h-8Zm0,4h8v2h-8Zm8,6h-8V30h8Zm21,0h-19V30h19Zm0-4h-19V26h19Zm0-4h-19V22h19Zm-19-4V18h19v2Z" fill="#c8bdb8"/>
  </g>
</svg>
