<svg xmlns="http://www.w3.org/2000/svg" width="16.074" height="16.074" viewBox="0 0 16.074 16.074">
  <g id="exclamation-mark" transform="translate(16.074 16.074) rotate(180)">
    <path id="Path_5889" data-name="Path 5889" d="M8.037,0a8.037,8.037,0,1,0,8.037,8.037A8.037,8.037,0,0,0,8.037,0Zm0,14.567a6.53,6.53,0,1,1,6.53-6.53A6.53,6.53,0,0,1,8.037,14.567Zm0-11.042c-.576,0-1.011.3-1.011.786V8.761c0,.486.435.785,1.011.785s1.011-.312,1.011-.785V4.31C9.049,3.837,8.6,3.525,8.038,3.525Zm0,7.024a1,1,0,1,0,1,1A1,1,0,0,0,8.038,10.549Z" fill="#b3b3b3"/>
  </g>
</svg>
