<svg xmlns="http://www.w3.org/2000/svg" width="24" height="24" viewBox="0 0 24 24">
  <g id="Group_2018" data-name="Group 2018" transform="translate(-985 -1225)">
    <g id="Group_2016" data-name="Group 2016" transform="translate(0 186)">
      <path id="_Color" data-name=" ↳Color" d="M7.727,13.908l-1.12-1C2.627,9.368,0,7.034,0,4.169A4.169,4.169,0,0,1,4.25,0,4.664,4.664,0,0,1,7.727,1.584,4.664,4.664,0,0,1,11.2,0a4.169,4.169,0,0,1,4.25,4.169c0,2.865-2.627,5.2-6.606,8.747Z" transform="translate(989 1044)" fill="#8e8e8e"/>
      <rect id="Rectangle_1365" data-name="Rectangle 1365" width="24" height="24" transform="translate(985 1039)" fill="none"/>
    </g>
    <g id="delete_3_" data-name="delete (3)" transform="translate(992.049 1230.361)">
      <path id="Path_1234" data-name="Path 1234" d="M9.073,1.851,6.228,4.7,9.073,7.542A1.083,1.083,0,1,1,7.541,9.075L4.7,6.229,1.849,9.075A1.084,1.084,0,0,1,.317,7.542L3.163,4.7.317,1.851A1.083,1.083,0,1,1,1.849.319L4.695,3.164,7.541.319A1.084,1.084,0,0,1,9.073,1.851Z" transform="translate(0 -0.002)" fill="#b2b1b1"/>
    </g>
  </g>
</svg>
