<svg id="Group_1452" data-name="Group 1452" xmlns="http://www.w3.org/2000/svg" width="24" height="24" viewBox="0 0 24 24">
  <g id="cancel_11_" data-name="cancel (11)" transform="translate(4 4)">
    <g id="Group_1449" data-name="Group 1449">
      <g id="Group_1448" data-name="Group 1448" transform="translate(0 0)">
        <path id="Path_1256" data-name="Path 1256" d="M13.251,2.34a7.76,7.76,0,1,0,0,10.98A7.77,7.77,0,0,0,13.251,2.34ZM12.4,12.469a6.56,6.56,0,1,1,0-9.279A6.566,6.566,0,0,1,12.4,12.469Z" transform="translate(0 -0.07)" fill="#003B6B"/>
      </g>
    </g>
    <g id="Group_1451" data-name="Group 1451" transform="translate(4.453 4.389)">
      <g id="Group_1450" data-name="Group 1450">
        <path id="Path_1257" data-name="Path 1257" d="M173.7,170.231l-2.084-2.081,2.084-2.081a.736.736,0,0,0-1.041-1.042l-2.085,2.082-2.085-2.082a.736.736,0,0,0-1.041,1.042l2.084,2.081-2.084,2.081a.736.736,0,0,0,1.041,1.041l2.085-2.082,2.085,2.082a.736.736,0,1,0,1.041-1.041Z" transform="translate(-167.236 -164.813)" fill="#003B6B"/>
      </g>
    </g>
  </g>
  <rect id="Rectangle_1193" data-name="Rectangle 1193" width="24" height="24" fill="none"/>
</svg>
