<svg xmlns="http://www.w3.org/2000/svg" width="17" height="17" viewBox="0 0 17 17">
  <g id="XMLID_225_" opacity="0.75">
    <path id="XMLID_226_" d="M9.335,12.054l.613.613A.773.773,0,1,1,8.855,13.76L6.923,11.828l0,0c-.016-.017-.032-.034-.047-.052l-.013-.017c-.011-.014-.022-.029-.033-.044L6.818,11.7c-.01-.016-.021-.033-.03-.05l-.005-.011c-.01-.019-.019-.038-.027-.058l0-.007c-.008-.021-.016-.042-.023-.064l0-.008c-.006-.021-.012-.043-.016-.065,0-.006,0-.013,0-.019s-.006-.037-.008-.056a.762.762,0,0,1,0-.154c0-.019.005-.037.008-.056s0-.013,0-.019c0-.022.01-.043.016-.065l0-.009c.007-.022.014-.043.023-.063l0-.008c.008-.019.017-.038.027-.057l.006-.012c.009-.017.019-.033.029-.049l.01-.016c.01-.015.021-.028.031-.042l.014-.018c.013-.016.028-.032.042-.047l.008-.009L8.855,8.8A.773.773,0,0,1,9.948,9.9l-.613.613h4.574v-3.3H7.47A.773.773,0,0,1,6.7,6.439V0H.773A.773.773,0,0,0,0,.773V16.227A.773.773,0,0,0,.773,17H13.136a.773.773,0,0,0,.773-.773V12.055H9.335Z" fill="#003b6b"/>
    <path id="XMLID_227_" d="M165.214,14,160,8.787V14h5.214Z" transform="translate(-151.758 -8.334)" fill="#003b6b"/>
    <path id="XMLID_228_" d="M272.318,204H270v1.545h2.318a.773.773,0,0,0,0-1.545Z" transform="translate(-256.091 -193.491)" fill="#003b6b"/>
  </g>
</svg>
