<svg id="information_1_" data-name="information (1)" xmlns="http://www.w3.org/2000/svg" width="18.922" height="18.922" viewBox="0 0 18.922 18.922">
  <g id="Group_1700" data-name="Group 1700">
    <g id="Group_1699" data-name="Group 1699">
      <path id="Path_1313" data-name="Path 1313" d="M9.461,0a9.461,9.461,0,1,0,9.461,9.461A9.456,9.456,0,0,0,9.461,0Zm0,17.444a7.983,7.983,0,1,1,7.983-7.983A7.978,7.978,0,0,1,9.461,17.444Z" fill="#0370ff"/>
    </g>
  </g>
  <g id="Group_1702" data-name="Group 1702" transform="translate(8.722 7.921)">
    <g id="Group_1701" data-name="Group 1701">
      <path id="Path_1314" data-name="Path 1314" d="M236.739,214.33a.739.739,0,0,0-.739.739v4.76a.739.739,0,1,0,1.478,0v-4.76A.739.739,0,0,0,236.739,214.33Z" transform="translate(-236 -214.33)" fill="#0370ff"/>
    </g>
  </g>
  <g id="Group_1704" data-name="Group 1704" transform="translate(8.463 5.02)">
    <g id="Group_1703" data-name="Group 1703">
      <circle id="Ellipse_1101" data-name="Ellipse 1101" cx="0.998" cy="0.998" r="0.998" fill="#0370ff"/>
    </g>
  </g>
</svg>
