<svg xmlns="http://www.w3.org/2000/svg" width="24.24" height="24.24" viewBox="0 0 24.24 24.24">
  <path id="language_1_" data-name="language (1)" d="M12.12,0A12.12,12.12,0,1,0,24.24,12.12,12.12,12.12,0,0,0,12.12,0ZM22.6,16.366l-3.447.595a18.086,18.086,0,0,0,.634-4.437h3.632a11.237,11.237,0,0,1-.82,3.842ZM.818,12.524H4.45a18.087,18.087,0,0,0,.634,4.437l-3.447-.595a11.237,11.237,0,0,1-.82-3.842Zm.82-4.65,3.447-.595a18.086,18.086,0,0,0-.634,4.437H.818a11.237,11.237,0,0,1,.82-3.842ZM12.524,6.487a27.793,27.793,0,0,1,4.331.4l1.426.246a17.341,17.341,0,0,1,.7,4.588H12.524Zm4.469-.4a28.637,28.637,0,0,0-4.469-.407V.831c2.316.223,4.328,2.343,5.468,5.429Zm-5.277-.407a28.632,28.632,0,0,0-4.468.407l-1,.173C7.388,3.172,9.4,1.05,11.716.829Zm-4.331,1.2a27.785,27.785,0,0,1,4.331-.4v5.229H5.258a17.342,17.342,0,0,1,.7-4.588ZM5.258,12.524h6.458v5.229a27.793,27.793,0,0,1-4.331-.4l-1.426-.246a17.341,17.341,0,0,1-.7-4.588Zm1.989,5.63a28.733,28.733,0,0,0,4.469.409v4.848c-2.316-.223-4.328-2.343-5.468-5.43Zm5.277.409a28.73,28.73,0,0,0,4.468-.409l1-.173c-1.14,3.087-3.152,5.208-5.468,5.43Zm4.331-1.206a27.785,27.785,0,0,1-4.331.4V12.524h6.458a17.342,17.342,0,0,1-.7,4.588Zm2.935-5.642a18.086,18.086,0,0,0-.634-4.437l3.447.595a11.237,11.237,0,0,1,.82,3.842Zm2.4-4.732-3.3-.57a11.141,11.141,0,0,0-3.214-5.03,11.366,11.366,0,0,1,6.518,5.6ZM8.565,1.384a11.141,11.141,0,0,0-3.214,5.03l-3.3.57a11.366,11.366,0,0,1,6.518-5.6ZM2.047,17.256l3.3.57a11.141,11.141,0,0,0,3.214,5.03,11.366,11.366,0,0,1-6.518-5.6Zm13.628,5.6a11.141,11.141,0,0,0,3.214-5.03l3.3-.57a11.366,11.366,0,0,1-6.518,5.6Zm0,0" fill="#a49595"/>
</svg>
