<svg xmlns="http://www.w3.org/2000/svg" width="24" height="24" viewBox="0 0 24 24">
  <g id="Group_328" data-name="Group 328" transform="translate(-1232 -340)">
    <g id="Group_327" data-name="Group 327" transform="translate(1235 350)">
      <g id="Group_324" data-name="Group 324" transform="translate(0 0)">
        <path id="Path_1173" data-name="Path 1173" d="M1.943,150.7a1.943,1.943,0,1,1,1.943-1.943A1.945,1.945,0,0,1,1.943,150.7Z" transform="translate(0 -146.811)" fill="#707070"/>
      </g>
      <g id="Group_325" data-name="Group 325" transform="translate(6.845 0)">
        <path id="Path_1174" data-name="Path 1174" d="M146.443,150.7a1.943,1.943,0,1,1,1.943-1.943A1.945,1.945,0,0,1,146.443,150.7Z" transform="translate(-144.5 -146.811)" fill="#707070"/>
      </g>
      <g id="Group_326" data-name="Group 326" transform="translate(13.909 0)">
        <path id="Path_1175" data-name="Path 1175" d="M295.553,150.7a1.943,1.943,0,1,1,1.943-1.943A1.945,1.945,0,0,1,295.553,150.7Z" transform="translate(-293.61 -146.811)" fill="#707070"/>
      </g>
    </g>
    <rect id="Rectangle_1104" data-name="Rectangle 1104" width="24" height="24" transform="translate(1232 340)" fill="none"/>
  </g>
</svg>
