<svg xmlns="http://www.w3.org/2000/svg" width="68.499" height="84.871" viewBox="0 0 68.499 84.871">
  <g id="g5349" transform="translate(-335.836 -1669.783)" opacity="0.54">
    <g id="g5385" transform="translate(335.836 1669.783)">
      <g id="g5271" transform="translate(0 0)">
        <g id="g5093">
          <g id="g5125" transform="translate(0 0)">
            <g id="g5154" transform="translate(0 0)">
              <g id="g5200" transform="translate(0)">
                <g id="g5239" transform="translate(0)">
                  <g id="g5109">
                    <path id="rect4208" d="M158.164,63.764a8.36,8.36,0,0,0-8.378,8.378v57.546a8.36,8.36,0,0,0,8.378,8.378h38.678a8.36,8.36,0,0,0,8.378-8.378V72.142a8.36,8.36,0,0,0-8.378-8.378ZM177.5,88.308A12.608,12.608,0,1,1,164.9,100.916,12.608,12.608,0,0,1,177.5,88.308Z" transform="translate(-138.169 -62.293)" fill="none"/>
                    <g id="Group_1720" data-name="Group 1720">
                      <path id="path22971" d="M1384.036,1680a9.466,9.466,0,0,0-9.452,9.452v58.343a9.466,9.466,0,0,0,9.452,9.452h39.43a9.464,9.464,0,0,0,9.45-9.452v-58.343a9.464,9.464,0,0,0-9.45-9.452Zm0,3.14h39.43a6.263,6.263,0,0,1,6.31,6.312v58.343a6.261,6.261,0,0,1-6.31,6.31h-39.43a6.261,6.261,0,0,1-6.31-6.31v-58.343A6.263,6.263,0,0,1,1384.036,1683.14Z" transform="translate(-1364.418 -1680)" fill="#8e8e8e" fill-rule="evenodd"/>
                      <path id="path22973" d="M1336.326,1715.789a9.466,9.466,0,0,0-9.452,9.452v58.34a9.466,9.466,0,0,0,9.452,9.452h39.428a9.46,9.46,0,0,0,9.445-9.13l.054-1.571-2.8.771-.4.695a6.266,6.266,0,0,1-6.308,6.095h-39.428a6.265,6.265,0,0,1-6.312-6.312v-58.34a6.265,6.265,0,0,1,6.312-6.312h1.706v-3.14h-1.706Z" transform="translate(-1326.874 -1708.162)" fill="#8e8e8e" fill-rule="evenodd"/>
                      <path id="path22975" d="M1473.91,1978.15v3.142h16v-3.142Z" transform="translate(-1442.578 -1914.616)" fill="#8e8e8e" fill-rule="evenodd"/>
                      <path id="path22977" d="M1350.72,1827.7v3.142h6.028V1827.7h-6.028Z" transform="translate(-1345.639 -1796.226)" fill="#8e8e8e" fill-rule="evenodd"/>
                      <path id="path22979" d="M1350.72,1858.68v3.142h6.028v-3.142h-6.028Z" transform="translate(-1345.639 -1820.605)" fill="#8e8e8e" fill-rule="evenodd"/>
                      <path id="path22981" d="M1350.72,1889.66v3.142h6.028v-3.142h-6.028Z" transform="translate(-1345.639 -1844.983)" fill="#8e8e8e" fill-rule="evenodd"/>
                      <path id="path22983" d="M1350.72,1920.65v3.142h6.028v-3.142h-6.028Z" transform="translate(-1345.639 -1869.369)" fill="#8e8e8e" fill-rule="evenodd"/>
                      <path id="path22985" d="M1350.72,1951.63v3.142h6.028v-3.142h-6.028Z" transform="translate(-1345.639 -1893.748)" fill="#8e8e8e" fill-rule="evenodd"/>
                      <path id="path22987" d="M1459.057,1794.66a14.19,14.19,0,1,0,14.191,14.189A14.213,14.213,0,0,0,1459.057,1794.66Zm0,3.14a11.05,11.05,0,1,1-11.049,11.049A11.026,11.026,0,0,1,1459.057,1797.8Z" transform="translate(-1419.723 -1770.227)" fill="#8e8e8e" fill-rule="evenodd"/>
                    </g>
                  </g>
                </g>
              </g>
            </g>
          </g>
        </g>
      </g>
    </g>
  </g>
</svg>
