<svg xmlns="http://www.w3.org/2000/svg" width="86.954" height="107.738" viewBox="0 0 86.954 107.738">
  <g id="g5349" transform="translate(-335.836 -1669.783)">
    <g id="g5385" transform="translate(335.836 1669.783)">
      <g id="g5271" transform="translate(0 0)">
        <g id="g5093" transform="translate(0 0)">
          <g id="g5125" transform="translate(0 0)">
            <g id="g5154" transform="translate(0 0)">
              <g id="g5200" transform="translate(0)">
                <g id="g5239" transform="translate(0)">
                  <g id="g5109">
                    <path id="rect4208" d="M160.422,63.764A10.613,10.613,0,0,0,149.786,74.4v73.051a10.613,10.613,0,0,0,10.636,10.636h49.1a10.613,10.613,0,0,0,10.636-10.636V74.4a10.613,10.613,0,0,0-10.636-10.636Zm24.55,31.157a16,16,0,1,1-16,16,16,16,0,0,1,16-16Z" transform="translate(-135.04 -61.896)" fill="none"/>
                    <g id="Group_1720" data-name="Group 1720">
                      <path id="path22971" d="M1386.583,1680a12.016,12.016,0,0,0-12,12v74.062a12.016,12.016,0,0,0,12,12h50.054a12.014,12.014,0,0,0,12-12V1692a12.014,12.014,0,0,0-12-12Zm0,3.986h50.054a7.95,7.95,0,0,1,8.01,8.013v74.062a7.948,7.948,0,0,1-8.01,8.01h-50.054a7.948,7.948,0,0,1-8.01-8.01V1692A7.95,7.95,0,0,1,1386.583,1683.986Z" transform="translate(-1361.678 -1680)" fill="#0370ff" fill-rule="evenodd"/>
                      <path id="path22973" d="M1338.873,1715.789a12.016,12.016,0,0,0-12,12v74.059a12.017,12.017,0,0,0,12,12h50.051a12.009,12.009,0,0,0,11.99-11.589l.069-1.994-3.549.979-.5.882a7.954,7.954,0,0,1-8.007,7.737h-50.051a7.953,7.953,0,0,1-8.013-8.013v-74.059a7.953,7.953,0,0,1,8.013-8.012h2.166v-3.986h-2.166Z" transform="translate(-1326.874 -1706.108)" fill="#0370ff" fill-rule="evenodd"/>
                      <path id="path22975" d="M1473.91,1978.15v3.989h20.314v-3.989Z" transform="translate(-1434.136 -1897.498)" fill="#0370ff" fill-rule="evenodd"/>
                      <path id="path22977" d="M1350.72,1827.7v3.989h7.653V1827.7h-7.653Z" transform="translate(-1344.269 -1787.746)" fill="#0370ff" fill-rule="evenodd"/>
                      <path id="path22979" d="M1350.72,1858.68v3.989h7.653v-3.989h-7.653Z" transform="translate(-1344.269 -1810.346)" fill="#0370ff" fill-rule="evenodd"/>
                      <path id="path22981" d="M1350.72,1889.66v3.989h7.653v-3.989h-7.653Z" transform="translate(-1344.269 -1832.946)" fill="#0370ff" fill-rule="evenodd"/>
                      <path id="path22983" d="M1350.72,1920.65v3.989h7.653v-3.989h-7.653Z" transform="translate(-1344.269 -1855.552)" fill="#0370ff" fill-rule="evenodd"/>
                      <path id="path22985" d="M1350.72,1951.63v3.989h7.653v-3.989h-7.653Z" transform="translate(-1344.269 -1878.152)" fill="#0370ff" fill-rule="evenodd"/>
                      <path id="path22987" d="M1462.88,1794.66a18.013,18.013,0,1,0,18.014,18.011A18.042,18.042,0,0,0,1462.88,1794.66Zm0,3.986a14.027,14.027,0,1,1-14.026,14.026A14,14,0,0,1,1462.88,1798.646Z" transform="translate(-1412.948 -1763.644)" fill="#0370ff" fill-rule="evenodd"/>
                    </g>
                  </g>
                </g>
              </g>
            </g>
          </g>
        </g>
      </g>
    </g>
  </g>
</svg>
