<svg xmlns="http://www.w3.org/2000/svg" width="16.56" height="14.046" viewBox="0 0 16.56 14.046">
  <g id="group" opacity="0.75">
    <g id="Group_239" data-name="Group 239" transform="translate(12.889 7.583)">
      <path id="Path_269" data-name="Path 269" d="M399.775,273.32h-1.281a3.331,3.331,0,0,1,.2,1.145v4.84a1.427,1.427,0,0,1-.082.478h2.117a1.436,1.436,0,0,0,1.434-1.434V275.71A2.393,2.393,0,0,0,399.775,273.32Z" transform="translate(-398.494 -273.32)" fill="#092a44"/>
    </g>
    <g id="Group_241" data-name="Group 241" transform="translate(0 7.583)">
      <path id="Path_270" data-name="Path 270" d="M3.469,274.466a3.331,3.331,0,0,1,.2-1.145H2.39A2.393,2.393,0,0,0,0,275.711v2.638a1.436,1.436,0,0,0,1.434,1.434H3.551a1.428,1.428,0,0,1-.082-.478Z" transform="translate(0 -273.321)" fill="#092a44"/>
    </g>
    <g id="Group_243" data-name="Group 243" transform="translate(4.426 6.338)">
      <path id="Path_271" data-name="Path 271" d="M142.147,234.815h-2.928a2.393,2.393,0,0,0-2.39,2.39v4.84a.478.478,0,0,0,.478.478h6.752a.478.478,0,0,0,.478-.478v-4.84A2.393,2.393,0,0,0,142.147,234.815Z" transform="translate(-136.829 -234.815)" fill="#092a44"/>
    </g>
    <g id="Group_245" data-name="Group 245" transform="translate(5.404)">
      <path id="Path_272" data-name="Path 272" d="M169.989,38.84a2.874,2.874,0,1,0,2.875,2.875A2.878,2.878,0,0,0,169.989,38.84Z" transform="translate(-167.114 -38.84)" fill="#092a44"/>
    </g>
    <g id="Group_247" data-name="Group 247" transform="translate(1.082 2.679)">
      <path id="Path_273" data-name="Path 273" d="M35.593,121.689a2.149,2.149,0,1,0,2.15,2.15A2.152,2.152,0,0,0,35.593,121.689Z" transform="translate(-33.443 -121.689)" fill="#092a44"/>
    </g>
    <g id="Group_249" data-name="Group 249" transform="translate(11.178 2.679)">
      <path id="Path_274" data-name="Path 274" d="M347.757,121.689a2.15,2.15,0,1,0,2.15,2.15A2.152,2.152,0,0,0,347.757,121.689Z" transform="translate(-345.607 -121.689)" fill="#092a44"/>
    </g>
  </g>
</svg>
