<svg xmlns="http://www.w3.org/2000/svg" width="24" height="24" viewBox="0 0 24 24">
  <g id="Group_1785" data-name="Group 1785" transform="translate(-1049 -281)">
    <rect id="Rectangle_1191" data-name="Rectangle 1191" width="24" height="24" transform="translate(1049 281)" fill="none"/>
    <path id="Path_1324" data-name="Path 1324" d="M12.71,19.107,9.89,20.535a2.542,2.542,0,0,0-.453.3,10.014,10.014,0,0,0,12.137.029,2.524,2.524,0,0,0-.5-.309l-3.02-1.4a1.064,1.064,0,0,1-.637-.956V17.1a4.293,4.293,0,0,0,.286-.341A6.276,6.276,0,0,0,18.645,15a.892.892,0,0,0,.673-.837V12.989a.85.85,0,0,0-.316-.65v-1.7S19.377,8,15.524,8s-3.478,2.641-3.478,2.641v1.7a.849.849,0,0,0-.316.65v1.174a.867.867,0,0,0,.437.739,5.689,5.689,0,0,0,1.144,2.2v1.073A1.061,1.061,0,0,1,12.71,19.107Z" transform="translate(1045.285 277.643)" fill="#8e8e8e"/>
  </g>
</svg>
