<svg id="plus_4_" data-name="plus (4)" xmlns="http://www.w3.org/2000/svg" width="19.511" height="19.511" viewBox="0 0 19.511 19.511">
  <path id="Path_284" data-name="Path 284" d="M9.756,0a9.756,9.756,0,1,0,9.756,9.756A9.766,9.766,0,0,0,9.756,0Zm0,0" fill="#fff"/>
  <path id="Path_285" data-name="Path 285" d="M130.714,127.741h-2.974v2.974a.7.7,0,1,1-1.4,0v-2.974h-2.974a.7.7,0,0,1,0-1.4h2.974v-2.974a.7.7,0,0,1,1.4,0v2.974h2.974a.7.7,0,1,1,0,1.4Zm0,0" transform="translate(-117.205 -117.205)" fill="#003b6b" opacity="0.57"/>
</svg>
