<svg xmlns="http://www.w3.org/2000/svg" width="156.499" height="147.139" viewBox="0 0 156.499 147.139">
  <g id="sent" transform="translate(-0.001 -0.5)">
    <path id="Path_1278" data-name="Path 1278" d="M156.111,34.059V12.416a3.925,3.925,0,0,0-3.88-3.944H50.55a3.925,3.925,0,0,0-3.882,3.944V34.059Zm0,0" transform="translate(-32.403 -5.536)" fill="#f4b537"/>
    <path id="Path_1279" data-name="Path 1279" d="M59.72,8.473H50.55a3.925,3.925,0,0,0-3.882,3.944V34.059h9.171V12.416a3.924,3.924,0,0,1,3.88-3.944Zm0,0" transform="translate(-32.403 -5.536)" fill="#eaa01c"/>
    <path id="Path_1280" data-name="Path 1280" d="M134.139,34.059l21.972-21.642a3.925,3.925,0,0,0-3.88-3.944H50.55a3.925,3.925,0,0,0-3.882,3.944L68.64,34.059Zm0,0" transform="translate(-32.403 -5.536)" fill="#feca57"/>
    <path id="Path_1281" data-name="Path 1281" d="M46.668,12.416l9.171,9.034V12.416a3.925,3.925,0,0,1,3.88-3.944H50.55a3.925,3.925,0,0,0-3.882,3.944Zm0,0" transform="translate(-32.403 -5.536)" fill="#f4b537"/>
    <path id="Path_1282" data-name="Path 1282" d="M104.706,180.746a27.49,27.49,0,0,1,36.27-26.028V95.56a4.738,4.738,0,0,0-4.725-4.725H12.455A4.739,4.739,0,0,0,7.73,95.56v82.231a4.738,4.738,0,0,0,4.725,4.725h92.31c-.037-.585-.058-1.175-.058-1.771Zm0,0" transform="translate(-5.367 -62.724)" fill="#feca57"/>
    <path id="Path_1283" data-name="Path 1283" d="M16.9,177.795V95.563a4.738,4.738,0,0,1,4.725-4.723h-9.17a4.738,4.738,0,0,0-4.725,4.723v82.231a4.738,4.738,0,0,0,4.725,4.725h9.17A4.738,4.738,0,0,1,16.9,177.795Zm0,0" transform="translate(-5.367 -62.727)" fill="#f4b537"/>
    <path id="Path_1284" data-name="Path 1284" d="M104.707,284.877a27.464,27.464,0,0,1,14.39-24.16L98.554,240.808l-10.033,9.725a20.356,20.356,0,0,1-28.335,0l-10.034-9.725L7.731,281.923a4.738,4.738,0,0,0,4.725,4.725h92.31c-.037-.585-.059-1.175-.059-1.771Zm0,0" transform="translate(-5.367 -166.855)" fill="#f4b537"/>
    <path id="Path_1285" data-name="Path 1285" d="M56.54,247l-6.387-6.19L7.73,281.924a4.738,4.738,0,0,0,4.725,4.725h3.174Zm0,0" transform="translate(-5.367 -166.856)" fill="#eaa01c"/>
    <path id="Path_1286" data-name="Path 1286" d="M136.252,90.84H12.455A4.738,4.738,0,0,0,7.73,95.563l52.456,51.453a20.356,20.356,0,0,0,28.335,0l52.456-51.453a4.737,4.737,0,0,0-4.725-4.723Zm0,0" transform="translate(-5.367 -62.727)" fill="#fcd486"/>
    <path id="Path_1287" data-name="Path 1287" d="M7.73,95.563l9.17,9v-9a4.738,4.738,0,0,1,4.725-4.723h-9.17A4.738,4.738,0,0,0,7.73,95.563Zm0,0" transform="translate(-5.367 -62.727)" fill="#feca57"/>
    <path id="Path_1288" data-name="Path 1288" d="M379.188,321.679a27.633,27.633,0,1,1-27.634-27.633A27.633,27.633,0,0,1,379.188,321.679Zm0,0" transform="translate(-224.91 -203.821)" fill="#1dd1a1"/>
    <path id="Path_1289" data-name="Path 1289" d="M333.092,321.679a27.639,27.639,0,0,1,23.048-27.252,27.633,27.633,0,1,0,0,54.5,27.639,27.639,0,0,1-23.048-27.252Zm0,0" transform="translate(-224.911 -203.821)" fill="#15ba8b"/>
    <g id="Group_1522" data-name="Group 1522" transform="translate(0.001 0.5)">
      <path id="Path_1290" data-name="Path 1290" d="M137.832,90.263v-17.9a2.292,2.292,0,1,0-4.585,0V88.83a30.34,30.34,0,0,0-6.508-.714,29.6,29.6,0,0,0-12.649,2.825L96.412,73.809l36.835-35.7V61.668a2.292,2.292,0,1,0,4.585,0V32.692a7.025,7.025,0,0,0-7.017-7.017H125.93v-19A6.18,6.18,0,0,0,119.757.5H18.077A6.181,6.181,0,0,0,11.9,6.673v19H7.018A7.025,7.025,0,0,0,0,32.692v82.231a7.024,7.024,0,0,0,7.017,7.017H63.566a2.292,2.292,0,1,0,0-4.585H7.018a2.44,2.44,0,0,1-2.284-1.6L44.716,77l8.438,8.178a22.642,22.642,0,0,0,31.526,0L93.118,77l16.823,16.3a29.769,29.769,0,0,0-12.96,24.051H74.266a2.292,2.292,0,1,0,0,4.585H97.255a29.762,29.762,0,1,0,40.577-31.678ZM18.076,5.085h101.68a1.6,1.6,0,0,1,1.377.823l-20.4,19.768H37.1L16.7,5.907a1.6,1.6,0,0,1,1.377-.823Zm103.269,7V25.675h-14.02Zm-104.857,0L30.507,25.675H16.488Zm-11.9,97.422v-71.4l36.836,35.7Zm76.9-27.623a17.982,17.982,0,0,1-25.143,0C54.139,79.749,6.561,33.636,4.734,31.865a2.443,2.443,0,0,1,2.284-1.6h123.8a2.438,2.438,0,0,1,2.284,1.6L81.488,81.886Zm45.25,61.167a25.176,25.176,0,1,1,25.177-25.175,25.2,25.2,0,0,1-25.177,25.175Zm0,0" transform="translate(-0.001 -0.5)" fill="#020202"/>
      <path id="Path_1291" data-name="Path 1291" d="M394.868,355.328,381.576,368.62l-6.732-6.732a2.293,2.293,0,0,0-3.242,3.243l8.352,8.352a2.293,2.293,0,0,0,3.243,0l14.913-14.912a2.293,2.293,0,1,0-3.243-3.243Zm0,0" transform="translate(-257.552 -246.405)" fill="#020202"/>
    </g>
  </g>
</svg>
