<svg id="Group_3" data-name="Group 3" xmlns="http://www.w3.org/2000/svg" xmlns:xlink="http://www.w3.org/1999/xlink" width="100" height="20" viewBox="0 0 135 28">
  <defs>
    <clipPath id="clip-path">
      <path id="Path_2" data-name="Path 2" d="M141.027,634.929l-9.005,9.6-3.775,4.029-6.192-6.815v-6.811l6.348,6.993,6.294-6.993Z" transform="translate(-122.055 -634.929)" fill="none"/>
    </clipPath>
    <linearGradient id="linear-gradient" x1="-2.857" y1="18.306" x2="-2.833" y2="18.306" gradientUnits="objectBoundingBox">
      <stop offset="0" stop-color="#b33d32"/>
      <stop offset="0.139" stop-color="#cc4d41"/>
      <stop offset="0.298" stop-color="#e15a4e"/>
      <stop offset="0.475" stop-color="#f06357"/>
      <stop offset="0.683" stop-color="#f9695c"/>
      <stop offset="1" stop-color="#fc6b5e"/>
    </linearGradient>
  </defs>
  <path id="Path_1" data-name="Path 1" d="M132.89,645.568l-.868-1.042-3.775,4.029,6.392,6.753h6.4ZM128.4,634.929h-6.348l6.348,6.993Zm-6.348,20.379h6.188l0-6.753-6.192-6.815Z" transform="translate(-122.055 -632.464)" fill="#0370ff"/>
  <g id="Group_2" data-name="Group 2" transform="translate(0 2.465)">
    <g id="Group_1" data-name="Group 1" transform="translate(0 0)" clip-path="url(#clip-path)">
      <rect id="Rectangle_1" data-name="Rectangle 1" width="18.972" height="13.626" transform="translate(0)" fill="url(#linear-gradient)"/>
    </g>
  </g>
  <path id="Path_3" data-name="Path 3" d="M140.608,657.53l-4.643,2.987,3.775-4.029Z" transform="translate(-129.773 -644.426)" fill="#003b6b"/>
  <text id="Shayyek" transform="translate(22.734 22)" fill="#fff" font-size="23" font-family="Montserrat-Bold, Montserrat" font-weight="700"><tspan x="0" y="0">Sh</tspan><tspan y="0" letter-spacing="-0.009em">a</tspan><tspan y="0" letter-spacing="-0.012em">y</tspan><tspan y="0" letter-spacing="-0.014em">y</tspan><tspan y="0">ek</tspan></text>
  <path id="Path_4" data-name="Path 4" d="M417,652.459a2.066,2.066,0,0,1,0-3.576,2.2,2.2,0,0,1,2.119-.006,1.964,1.964,0,0,1,.745.739,2.082,2.082,0,0,1-.76,2.843,2.157,2.157,0,0,1-2.107,0m1.909-.33a1.635,1.635,0,0,0,.607-.614,1.784,1.784,0,0,0,.006-1.709,1.569,1.569,0,0,0-.6-.6,1.788,1.788,0,0,0-1.721,0,1.6,1.6,0,0,0-.6.608,1.777,1.777,0,0,0,0,1.706,1.6,1.6,0,0,0,.6.608,1.747,1.747,0,0,0,1.709,0m-1.426-.43a1.13,1.13,0,0,1-.448-.421,1.22,1.22,0,0,1,0-1.215,1.131,1.131,0,0,1,.448-.421,1.356,1.356,0,0,1,.645-.152,1.227,1.227,0,0,1,.613.149.95.95,0,0,1,.395.406l-.531.31a.522.522,0,0,0-.483-.275.543.543,0,0,0-.4.161.65.65,0,0,0,0,.859.543.543,0,0,0,.4.161.522.522,0,0,0,.483-.275l.531.3a.944.944,0,0,1-.395.412,1.232,1.232,0,0,1-.613.149,1.351,1.351,0,0,1-.645-.152" transform="translate(-285.135 -640.054)" fill="#fff"/>
</svg>
