<svg xmlns="http://www.w3.org/2000/svg" xmlns:xlink="http://www.w3.org/1999/xlink" width="178.27" height="56.108" viewBox="0 0 178.27 56.108">
  <defs>
    <clipPath id="clip-path">
      <path id="Path_24" data-name="Path 24" d="M191.675,777.665l-20.23,21.559-8.48,9.051-13.91-15.31v-15.3l14.26,15.71,14.14-15.71Z" fill="none"/>
    </clipPath>
    <linearGradient id="linear-gradient" x1="-3.475" y1="13.533" x2="-3.452" y2="13.533" gradientUnits="objectBoundingBox">
      <stop offset="0" stop-color="#b33d32"/>
      <stop offset="0.139" stop-color="#cc4d41"/>
      <stop offset="0.298" stop-color="#e15a4e"/>
      <stop offset="0.475" stop-color="#f06357"/>
      <stop offset="0.683" stop-color="#f9695c"/>
      <stop offset="1" stop-color="#fc6b5e"/>
    </linearGradient>
  </defs>
  <g id="shayyek_logo_arabic_dark_bg" data-name="shayyek logo arabic dark bg" transform="translate(-149.055 -777.665)">
    <g id="Group_28" data-name="Group 28">
      <path id="Path_23" data-name="Path 23" d="M173.4,801.565l-1.95-2.34-8.48,9.05,14.36,15.17h14.38Zm-10.08-23.9h-14.26l14.26,15.71Zm-14.26,45.78h13.9l.01-15.17-13.91-15.31Z" fill="#fff"/>
      <g id="Group_27" data-name="Group 27">
        <g id="Group_26" data-name="Group 26" clip-path="url(#clip-path)">
          <rect id="Rectangle_9" data-name="Rectangle 9" width="42.62" height="30.61" transform="translate(149.055 777.665)" fill="url(#linear-gradient)"/>
        </g>
      </g>
      <path id="Path_25" data-name="Path 25" d="M173.4,801.565l-10.43,6.71,8.48-9.05Z" fill="#003b6b"/>
    </g>
    <g id="Group_33" data-name="Group 33">
      <g id="Group_30" data-name="Group 30">
        <g id="Group_29" data-name="Group 29">
          <path id="Path_26" data-name="Path 26" d="M263.923,821.992H211.029q-7.89,0-7.89-7.678v-8.137h7.784v4.812q0,3.4,3.574,3.4h36.512v-4.175q0-2.689-1.061-3.149a6.165,6.165,0,0,0-2.335-.319H225.181q-3.219,0-4.635-1.2-1.592-1.308-1.591-4.458v-17.3h40.191v7.607H227.057v4.423q0,2.334.636,2.936.531.5,2.76.495h22.4q6.3,0,6.3,5.661v9.483h4.777Z" fill="#fff"/>
          <path id="Path_27" data-name="Path 27" d="M283.17,821.992h-21.3v-7.606h8.809V799.278h7.749v15.108h4.741Zm-9.376,7.89a3.773,3.773,0,0,1-1.132,2.742,3.8,3.8,0,0,1-5.449,0,3.887,3.887,0,0,1,0-5.484,3.8,3.8,0,0,1,5.449,0A3.77,3.77,0,0,1,273.794,829.882Zm8.845,0a3.864,3.864,0,0,1-3.892,3.891,3.626,3.626,0,0,1-2.706-1.149,3.929,3.929,0,0,1,0-5.484,3.626,3.626,0,0,1,2.706-1.15,3.865,3.865,0,0,1,3.892,3.892Z" fill="#fff"/>
          <path id="Path_28" data-name="Path 28" d="M327.325,814.386q0,7.606-7.89,7.606H281.188v-7.606h8.7V799.278h7.784v15.108h6.97V799.278h7.784v15.108h3.679q3.467,0,3.467-3.468v-11.64h7.749Zm-19.5-22.114a3.925,3.925,0,0,1-3.892,3.892,3.686,3.686,0,0,1-2.724-1.149,3.888,3.888,0,0,1,0-5.485,3.69,3.69,0,0,1,2.724-1.149,3.925,3.925,0,0,1,3.892,3.891Zm4.458-7a3.865,3.865,0,0,1-3.892,3.891,3.683,3.683,0,0,1-2.724-1.15,3.769,3.769,0,0,1-1.132-2.741,3.865,3.865,0,0,1,3.856-3.857,3.786,3.786,0,0,1,2.76,1.114A3.7,3.7,0,0,1,312.288,785.268Zm4.352,7a3.778,3.778,0,0,1-1.132,2.743,3.8,3.8,0,0,1-5.449,0,3.888,3.888,0,0,1,0-5.485,3.8,3.8,0,0,1,5.449,0A3.777,3.777,0,0,1,316.64,792.272Z" fill="#fff"/>
        </g>
      </g>
      <g id="Group_32" data-name="Group 32">
        <g id="Group_31" data-name="Group 31">
          <path id="Path_29" data-name="Path 29" d="M273.38,783.529a13.366,13.366,0,0,1,1.419,5.2,7.113,7.113,0,0,1-.2,2.208c-.513,1.576-1.261,2.126-2.246,2.126a3.612,3.612,0,0,1-2.443-.748H269.8c-1.182,1.457-2.4,2.246-3.506,2.246a2.4,2.4,0,0,1-2.088-1.182,6.29,6.29,0,0,1-.552-2.837,9.528,9.528,0,0,1,.315-2.561,15.052,15.052,0,0,1,1.418-.945l.118.078a9.071,9.071,0,0,0-.314,2.207c0,1.221.433,2.009,1.26,2.009a1.721,1.721,0,0,0,1.773-1.851l-.118-2.719a7.687,7.687,0,0,1,1.221-1.025l.118.079c.079,2.049.631,3.349,1.458,3.744a2.442,2.442,0,0,0,1.3.433,1.377,1.377,0,0,0,.946-.394,17.547,17.547,0,0,0-1.418-4.019c.512-.749.984-1.418,1.5-2.049Z" fill="#fff"/>
        </g>
      </g>
    </g>
  </g>
</svg>
