<svg xmlns="http://www.w3.org/2000/svg" width="132.953" height="125.001" viewBox="0 0 132.953 125.001">
  <g id="sent" transform="translate(-0.001 -0.5)">
    <path id="Path_1278" data-name="Path 1278" d="M139.644,30.209V11.823a3.334,3.334,0,0,0-3.3-3.35H49.966a3.335,3.335,0,0,0-3.3,3.35V30.209Zm0,0" transform="translate(-34.549 -5.903)" fill="#f4b537"/>
    <path id="Path_1279" data-name="Path 1279" d="M57.756,8.473h-7.79a3.335,3.335,0,0,0-3.3,3.35V30.209h7.791V11.823a3.334,3.334,0,0,1,3.3-3.35Zm0,0" transform="translate(-34.549 -5.903)" fill="#eaa01c"/>
    <path id="Path_1280" data-name="Path 1280" d="M120.978,30.209l18.666-18.386a3.334,3.334,0,0,0-3.3-3.35H49.966a3.335,3.335,0,0,0-3.3,3.35L65.334,30.209Zm0,0" transform="translate(-34.549 -5.903)" fill="#feca57"/>
    <path id="Path_1281" data-name="Path 1281" d="M46.668,11.823,54.459,19.5V11.823a3.334,3.334,0,0,1,3.3-3.35h-7.79a3.335,3.335,0,0,0-3.3,3.35Zm0,0" transform="translate(-34.549 -5.903)" fill="#f4b537"/>
    <path id="Path_1282" data-name="Path 1282" d="M90.115,167.218a23.354,23.354,0,0,1,30.813-22.112V94.849a4.025,4.025,0,0,0-4.014-4.014H11.744A4.026,4.026,0,0,0,7.73,94.849v69.859a4.025,4.025,0,0,0,4.014,4.014H90.165c-.031-.5-.05-1-.05-1.5Zm0,0" transform="translate(-5.722 -66.878)" fill="#feca57"/>
    <path id="Path_1283" data-name="Path 1283" d="M15.521,164.712V94.853a4.025,4.025,0,0,1,4.014-4.013h-7.79a4.025,4.025,0,0,0-4.014,4.013v69.859a4.025,4.025,0,0,0,4.014,4.014h7.79A4.025,4.025,0,0,1,15.521,164.712Zm0,0" transform="translate(-5.723 -66.881)" fill="#f4b537"/>
    <path id="Path_1284" data-name="Path 1284" d="M90.116,278.247a23.332,23.332,0,0,1,12.225-20.525L84.889,240.808l-8.524,8.262a17.293,17.293,0,0,1-24.071,0l-8.525-8.262L7.731,275.737a4.025,4.025,0,0,0,4.014,4.014H90.166c-.031-.5-.05-1-.05-1.5Zm0,0" transform="translate(-5.723 -177.907)" fill="#f4b537"/>
    <path id="Path_1285" data-name="Path 1285" d="M49.2,246.067l-5.426-5.258L7.73,275.738a4.025,4.025,0,0,0,4.014,4.014h2.7Zm0,0" transform="translate(-5.723 -177.907)" fill="#eaa01c"/>
    <path id="Path_1286" data-name="Path 1286" d="M116.914,90.84H11.744A4.025,4.025,0,0,0,7.73,94.853l44.563,43.711a17.293,17.293,0,0,0,24.071,0l44.563-43.711a4.024,4.024,0,0,0-4.014-4.013Zm0,0" transform="translate(-5.722 -66.881)" fill="#fcd486"/>
    <path id="Path_1287" data-name="Path 1287" d="M7.73,94.853l7.79,7.642V94.853a4.025,4.025,0,0,1,4.014-4.013h-7.79A4.025,4.025,0,0,0,7.73,94.853Zm0,0" transform="translate(-5.723 -66.881)" fill="#feca57"/>
    <path id="Path_1288" data-name="Path 1288" d="M370.872,317.522A23.476,23.476,0,1,1,347.4,294.047,23.475,23.475,0,0,1,370.872,317.522Zm0,0" transform="translate(-239.807 -217.321)" fill="#1dd1a1"/>
    <path id="Path_1289" data-name="Path 1289" d="M331.712,317.522a23.48,23.48,0,0,1,19.58-23.151,23.475,23.475,0,1,0,0,46.3,23.48,23.48,0,0,1-19.58-23.151Zm0,0" transform="translate(-239.808 -217.321)" fill="#15ba8b"/>
    <g id="Group_1522" data-name="Group 1522" transform="translate(0.001 0.5)">
      <path id="Path_1290" data-name="Path 1290" d="M117.094,76.757v-15.2a1.948,1.948,0,1,0-3.9,0V75.54a25.776,25.776,0,0,0-5.529-.607,25.149,25.149,0,0,0-10.746,2.4L81.906,62.779,113.2,32.449V52.465a1.948,1.948,0,1,0,3.9,0V27.849a5.968,5.968,0,0,0-5.961-5.961h-4.15V5.744A5.25,5.25,0,0,0,101.739.5H15.357a5.251,5.251,0,0,0-5.245,5.244V21.887H5.962A5.968,5.968,0,0,0,0,27.849V97.708a5.968,5.968,0,0,0,5.961,5.961H54a1.948,1.948,0,1,0,0-3.9H5.962a2.073,2.073,0,0,1-1.94-1.363L37.988,65.491l7.168,6.947a19.235,19.235,0,0,0,26.783,0l7.168-6.947L93.4,79.342A25.29,25.29,0,0,0,82.39,99.774h-19.3a1.948,1.948,0,1,0,0,3.9h19.53a25.284,25.284,0,1,0,34.472-26.912ZM15.357,4.395h86.382a1.359,1.359,0,0,1,1.17.7L85.58,21.887H31.514L14.187,5.094a1.356,1.356,0,0,1,1.17-.7Zm87.731,5.949V21.887H91.177Zm-89.08,0L25.917,21.887H14.008ZM3.9,93.108V32.449l31.294,30.33ZM69.228,69.641a15.276,15.276,0,0,1-21.36,0C45.993,67.825,5.574,28.65,4.021,27.146a2.075,2.075,0,0,1,1.94-1.363H111.132a2.072,2.072,0,0,1,1.94,1.363L69.228,69.641ZM107.67,121.6a21.388,21.388,0,1,1,21.389-21.388A21.41,21.41,0,0,1,107.67,121.6Zm0,0" transform="translate(-0.001 -0.5)" fill="#020202"/>
      <path id="Path_1291" data-name="Path 1291" d="M391.267,355.227l-11.292,11.292-5.719-5.719a1.948,1.948,0,0,0-2.754,2.755l7.1,7.1a1.948,1.948,0,0,0,2.755,0l12.669-12.668a1.948,1.948,0,0,0-2.755-2.755Zm0,0" transform="translate(-274.611 -262.693)" fill="#020202"/>
    </g>
  </g>
</svg>
