<svg xmlns="http://www.w3.org/2000/svg" width="24" height="24" viewBox="0 0 24 24">
  <g id="Group_1633" data-name="Group 1633" transform="translate(-1049 -281)">
    <g id="eye_3_" data-name="eye (3)" transform="translate(1053 189.275)">
      <path id="Path_1251" data-name="Path 1251" d="M8.149,98.725A10.168,10.168,0,0,0,.128,103.2a.645.645,0,0,0,0,.77c2.084,2.771,4.908,4.474,8.022,4.474a10.168,10.168,0,0,0,8.022-4.471.645.645,0,0,0,0-.77C14.087,100.429,11.263,98.725,8.149,98.725ZM8.373,107a3.428,3.428,0,1,1,3.2-3.2A3.43,3.43,0,0,1,8.373,107Zm-.1-1.58A1.846,1.846,0,1,1,9.993,103.7,1.843,1.843,0,0,1,8.269,105.423Z" transform="translate(0 0)" fill="#8e8e8e"/>
    </g>
    <rect id="Rectangle_1191" data-name="Rectangle 1191" width="24" height="24" transform="translate(1049 281)" fill="none"/>
  </g>
</svg>
