<svg xmlns="http://www.w3.org/2000/svg" width="17.93" height="18.037" viewBox="0 0 17.93 18.037">
  <path id="whatsapp" d="M15.15,12.806c-.18-.09-1.351-.63-1.531-.721a.424.424,0,0,0-.54.09c-.18.18-.54.721-.721.9-.09.18-.27.18-.45.09a7.363,7.363,0,0,1-1.8-1.081,10.368,10.368,0,0,1-1.261-1.531.4.4,0,0,1,.09-.45c.09-.09.18-.27.36-.36a.683.683,0,0,0,.18-.36.274.274,0,0,0,0-.36A16.011,16.011,0,0,1,8.755,7.4c-.09-.63-.27-.63-.45-.63h-.45a1.027,1.027,0,0,0-.54.27A2.592,2.592,0,0,0,6.5,8.933a4.718,4.718,0,0,0,.9,2.342,9.6,9.6,0,0,0,3.783,3.333,7.06,7.06,0,0,0,1.261.45,2.573,2.573,0,0,0,1.441.09,2.333,2.333,0,0,0,1.531-1.081,1.506,1.506,0,0,0,.09-1.081l-.36-.18M17.4,4.61A8.978,8.978,0,0,0,3.261,15.418L2,20.012l4.774-1.261a8.965,8.965,0,0,0,4.233,1.081h0a8.88,8.88,0,0,0,8.917-8.917A8.773,8.773,0,0,0,17.4,4.61M14.97,17.219a7.559,7.559,0,0,1-3.963,1.171h0A7.9,7.9,0,0,1,7.224,17.4l-.27-.18-2.792.721.721-2.7-.18-.27A7.563,7.563,0,0,1,7.134,4.61,7.327,7.327,0,0,1,17.312,6.951,7.432,7.432,0,0,1,14.97,17.219" transform="translate(-2 -1.975)" fill="#8e8e8e"/>
</svg>
